<?xml version="1.0" encoding="UTF-8"?>
<svg xmlns="http://www.w3.org/2000/svg" xmlns:xlink="http://www.w3.org/1999/xlink" width="30px" height="30px" viewBox="0 0 30 30" version="1.1">
<g id="surface1">
<path style=" stroke:none;fill-rule:nonzero;fill:rgb(26.666668%,26.274511%,26.274511%);fill-opacity:1;" d="M 15 0 C 6.730469 0 0 6.730469 0 15 C 0 23.269531 6.730469 30 15 30 C 23.269531 30 30 23.269531 30 15 C 30 6.730469 23.269531 0 15 0 Z M 22.78125 15.410156 L 11.777344 22.910156 C 11.699219 22.972656 11.597656 23.003906 11.496094 23.003906 C 11.421875 23.003906 11.339844 22.980469 11.265625 22.941406 C 11.101562 22.855469 11.003906 22.683594 11.003906 22.5 L 11.003906 7.5 C 11.003906 7.316406 11.101562 7.144531 11.265625 7.058594 C 11.429688 6.972656 11.628906 6.984375 11.78125 7.089844 L 22.78125 14.589844 C 22.917969 14.683594 23.003906 14.835938 23.003906 15 C 23.003906 15.164062 22.917969 15.316406 22.78125 15.410156 Z M 22.78125 15.410156 "/>
</g>
</svg>
